<?xml version="1.0" encoding="UTF-8"?>
<svg id="uuid-77960d7b-633b-435e-9c89-33089407356a" data-name="Gray-20" xmlns="http://www.w3.org/2000/svg" xmlns:xlink="http://www.w3.org/1999/xlink" viewBox="0 0 1080 1080">
  <title>AI/ML 1 illustration</title>
<desc>AI, ML, artificial intelligence, machine learning, brain, code, data </desc>
<metadata><?xpacket begin="﻿" id="W5M0MpCehiHzreSzNTczkc9d"?>
<x:xmpmeta xmlns:x="adobe:ns:meta/" x:xmptk="Adobe XMP Core 8.0-c001 1.000000, 0000/00/00-00:00:00        ">
   <rdf:RDF xmlns:rdf="http://www.w3.org/1999/02/22-rdf-syntax-ns#">
      <rdf:Description rdf:about=""
            xmlns:xmp="http://ns.adobe.com/xap/1.0/"
            xmlns:tiff="http://ns.adobe.com/tiff/1.0/"
            xmlns:dc="http://purl.org/dc/elements/1.1/">
         <xmp:rhcc-effective-on>2024-06-17T13:42:32.445Z</xmp:rhcc-effective-on>
         <xmp:rhcc-rights-restricted>no</xmp:rhcc-rights-restricted>
         <xmp:brand-content-subtype>Illustration</xmp:brand-content-subtype>
         <xmp:rhcc-metadata-complete-moderator>pending</xmp:rhcc-metadata-complete-moderator>
         <xmp:rhcc-translation-id>TRAf1adcb24-c520-4626-80a6-a175a3da91a9</xmp:rhcc-translation-id>
         <xmp:brand-content-type>Illustration</xmp:brand-content-type>
         <xmp:CreateDate>2024-06-17T13:42:32.445Z</xmp:CreateDate>
         <xmp:rhcc-aspect-ratio>square</xmp:rhcc-aspect-ratio>
         <xmp:rhcc-derivative-id>DERf1adcb24-c520-4626-80a6-a175a3da91a9</xmp:rhcc-derivative-id>
         <xmp:rhcc-effective-on-set-on-upload>true</xmp:rhcc-effective-on-set-on-upload>
         <xmp:rhcc-uploaded-by>alwilker@redhat.com</xmp:rhcc-uploaded-by>
         <xmp:rhcc-metadata-complete-uploader>pending</xmp:rhcc-metadata-complete-uploader>
         <xmp:rhcc-file-last-modified>2024-07-13T00:26:35.081Z</xmp:rhcc-file-last-modified>
         <xmp:rhcc-audience>rhcc-audience:internal</xmp:rhcc-audience>
         <xmp:rhcc-notify-portal-subscribers-on-change>yes</xmp:rhcc-notify-portal-subscribers-on-change>
         <xmp:brand-colorway>
            <rdf:Bag>
               <rdf:li>colorway:black</rdf:li>
               <rdf:li>colorway:red</rdf:li>
            </rdf:Bag>
         </xmp:brand-colorway>
         <tiff:ImageLength>1080</tiff:ImageLength>
         <tiff:ImageWidth>1080</tiff:ImageWidth>
         <dc:format>image/svg+xml</dc:format>
         <dc:modified>2024-06-17T13:43:35.494Z</dc:modified>
         <dc:description>
            <rdf:Alt>
               <rdf:li xml:lang="x-default">AI, ML, artificial intelligence, machine learning, brain, code, data </rdf:li>
            </rdf:Alt>
         </dc:description>
         <dc:title>
            <rdf:Alt>
               <rdf:li xml:lang="x-default">AI/ML 1 illustration</rdf:li>
            </rdf:Alt>
         </dc:title>
      </rdf:Description>
   </rdf:RDF>
</x:xmpmeta>


















<?xpacket end="w"?></metadata>
<defs>
    <style>
      .uuid-9e6b1c88-e910-4a7e-8c48-6a18e3794874 {
        clip-path: url(#uuid-a72d575d-74eb-4d91-b016-5366c605a4dd);
      }

      .uuid-f0206eed-70b5-4194-af63-e612dc3d55c5, .uuid-8669cd2f-08e5-4ef0-9f4d-7251c35a2656, .uuid-49de6ed4-7339-4d9e-913d-74c35b43669b, .uuid-56ed4998-bebe-47ee-94a3-9aaa66ca4665, .uuid-f389e060-e7a3-478d-8fdb-39ae3cb8e23c, .uuid-5159f4bc-453e-4ec0-bebe-1ef28b285fb9, .uuid-d7442d65-cd60-48f8-b9fa-8b413a97ef83, .uuid-4d0d96b5-2237-46a3-a269-294b33cdb5a0, .uuid-906412ec-51f6-4d06-bcda-98c51880946b, .uuid-ad37e5a8-0c49-4ee8-bb97-81e4c53872f4 {
        fill: none;
      }

      .uuid-f0206eed-70b5-4194-af63-e612dc3d55c5, .uuid-8630f27c-97a0-45dd-b81d-c6da1696742d, .uuid-7cfbc082-e4ce-4f3d-a395-9b26b240f791, .uuid-f389e060-e7a3-478d-8fdb-39ae3cb8e23c, .uuid-5159f4bc-453e-4ec0-bebe-1ef28b285fb9, .uuid-ad37e5a8-0c49-4ee8-bb97-81e4c53872f4, .uuid-341038d4-c2a5-45ec-9f76-55437e3649b2, .uuid-b363bd42-bc6b-4d1f-a7b7-fd7b6ad0827b {
        stroke: #e00;
      }

      .uuid-f0206eed-70b5-4194-af63-e612dc3d55c5, .uuid-8630f27c-97a0-45dd-b81d-c6da1696742d, .uuid-7cfbc082-e4ce-4f3d-a395-9b26b240f791, .uuid-5159f4bc-453e-4ec0-bebe-1ef28b285fb9, .uuid-ad37e5a8-0c49-4ee8-bb97-81e4c53872f4, .uuid-341038d4-c2a5-45ec-9f76-55437e3649b2, .uuid-b363bd42-bc6b-4d1f-a7b7-fd7b6ad0827b {
        stroke-miterlimit: 10;
      }

      .uuid-f0206eed-70b5-4194-af63-e612dc3d55c5, .uuid-341038d4-c2a5-45ec-9f76-55437e3649b2, .uuid-b363bd42-bc6b-4d1f-a7b7-fd7b6ad0827b {
        stroke-width: 3px;
      }

      .uuid-673d1ce0-f67c-44c8-bcec-ed779f55e267 {
        clip-path: url(#uuid-5456817d-4d6f-410e-99b5-87e1978cea31);
      }

      .uuid-8669cd2f-08e5-4ef0-9f4d-7251c35a2656, .uuid-e75ecb8f-6c14-4519-a27e-12528917deca, .uuid-58b39ae0-347a-4a33-8cfc-97d312c4e03e, .uuid-d3c37d42-0588-40d8-b6c8-69e854eacf98, .uuid-c3467af5-6325-43d8-8b44-b506b6432b9b, .uuid-99bf3271-8c9d-4b82-a58c-303b629c22ba, .uuid-6d696ffe-3042-48eb-9423-2c88bf856f77, .uuid-1c03d603-e6f1-46fc-aa74-988b79afbe4c, .uuid-6f4c1a6c-3a78-433d-80ec-01f5451b308a, .uuid-3522d0f8-8e3f-4dfe-9d5a-3d370dc77b34, .uuid-b1653980-8cd8-4ee7-9e08-317a4fcd0150, .uuid-92c4bd31-a192-47ed-8d68-d620cdc32cd1, .uuid-3f6ff4e0-7ce4-4f81-a39c-99fe1c4149aa, .uuid-8cadc011-3ed6-4374-825e-558a3361db1f {
        stroke-width: 0px;
      }

      .uuid-49de6ed4-7339-4d9e-913d-74c35b43669b {
        stroke-width: 1.84px;
      }

      .uuid-49de6ed4-7339-4d9e-913d-74c35b43669b, .uuid-56ed4998-bebe-47ee-94a3-9aaa66ca4665 {
        stroke: #000;
      }

      .uuid-49de6ed4-7339-4d9e-913d-74c35b43669b, .uuid-56ed4998-bebe-47ee-94a3-9aaa66ca4665, .uuid-f389e060-e7a3-478d-8fdb-39ae3cb8e23c, .uuid-d7442d65-cd60-48f8-b9fa-8b413a97ef83, .uuid-4d0d96b5-2237-46a3-a269-294b33cdb5a0, .uuid-906412ec-51f6-4d06-bcda-98c51880946b {
        stroke-linecap: round;
        stroke-linejoin: round;
      }

      .uuid-acb37e5d-0b13-4e1e-9253-60d2b7b0d133 {
        clip-path: url(#uuid-cc00c0d4-1254-4db4-b9f7-187bb5e0faf3);
      }

      .uuid-8630f27c-97a0-45dd-b81d-c6da1696742d, .uuid-56ed4998-bebe-47ee-94a3-9aaa66ca4665, .uuid-f389e060-e7a3-478d-8fdb-39ae3cb8e23c, .uuid-d7442d65-cd60-48f8-b9fa-8b413a97ef83, .uuid-4d0d96b5-2237-46a3-a269-294b33cdb5a0, .uuid-906412ec-51f6-4d06-bcda-98c51880946b, .uuid-ad37e5a8-0c49-4ee8-bb97-81e4c53872f4 {
        stroke-width: 2px;
      }

      .uuid-8630f27c-97a0-45dd-b81d-c6da1696742d, .uuid-341038d4-c2a5-45ec-9f76-55437e3649b2, .uuid-92c4bd31-a192-47ed-8d68-d620cdc32cd1 {
        fill: #fff;
      }

      .uuid-f2ee91f8-98ad-4d42-9794-3a91475d0630 {
        clip-path: url(#uuid-9256cafc-62b9-47fc-a547-e0002bf776ab);
      }

      .uuid-7cfbc082-e4ce-4f3d-a395-9b26b240f791 {
        stroke-width: 1px;
      }

      .uuid-7cfbc082-e4ce-4f3d-a395-9b26b240f791, .uuid-b363bd42-bc6b-4d1f-a7b7-fd7b6ad0827b, .uuid-3f6ff4e0-7ce4-4f81-a39c-99fe1c4149aa {
        fill: #e00;
      }

      .uuid-ebc4785d-f6bc-4e39-a347-5311837aa410 {
        mask: url(#uuid-62fa7777-ab8f-4f7b-bc33-2ac6e7e20a63);
      }

      .uuid-5159f4bc-453e-4ec0-bebe-1ef28b285fb9 {
        stroke-width: 1.99px;
      }

      .uuid-d7442d65-cd60-48f8-b9fa-8b413a97ef83 {
        stroke: #292929;
      }

      .uuid-4d0d96b5-2237-46a3-a269-294b33cdb5a0 {
        stroke: #a60000;
      }

      .uuid-906412ec-51f6-4d06-bcda-98c51880946b {
        stroke: #707070;
      }

      .uuid-02a42c06-3d79-4ada-820a-1ee4d23780c2 {
        clip-path: url(#uuid-97e2c795-2988-4034-9b48-fc44aae9444e);
      }

      .uuid-7f6662f3-4e2f-404a-842e-695674402f8f {
        mask: url(#uuid-41253b1b-5ba3-442b-99a9-e6c98c74b1ae);
      }

      .uuid-58b39ae0-347a-4a33-8cfc-97d312c4e03e {
        fill: #f2f2f2;
      }

      .uuid-d3c37d42-0588-40d8-b6c8-69e854eacf98 {
        fill: #f7c8bb;
      }

      .uuid-c3467af5-6325-43d8-8b44-b506b6432b9b {
        fill: #292929;
      }

      .uuid-99bf3271-8c9d-4b82-a58c-303b629c22ba {
        fill: #a3a3a3;
      }

      .uuid-6d696ffe-3042-48eb-9423-2c88bf856f77 {
        fill: #c7c7c7;
      }

      .uuid-1c03d603-e6f1-46fc-aa74-988b79afbe4c {
        fill: #e0e0e0;
      }

      .uuid-6f4c1a6c-3a78-433d-80ec-01f5451b308a {
        fill: #be00f3;
      }

      .uuid-3522d0f8-8e3f-4dfe-9d5a-3d370dc77b34 {
        fill: #a60000;
      }

      .uuid-b1653980-8cd8-4ee7-9e08-317a4fcd0150 {
        fill: #009c6d;
      }

      .uuid-8cadc011-3ed6-4374-825e-558a3361db1f {
        fill: #e8a997;
      }
    </style>
    <mask id="uuid-41253b1b-5ba3-442b-99a9-e6c98c74b1ae" data-name="mask" x="106.02" y="142.02" width="428.23" height="326.41" maskUnits="userSpaceOnUse">
      <g>
        <g>
          <rect class="uuid-92c4bd31-a192-47ed-8d68-d620cdc32cd1" x="106.6" y="142.6" width="427.07" height="325.26"/>
          <path class="uuid-e75ecb8f-6c14-4519-a27e-12528917deca" d="m533.1,143.17v324.1H107.18V143.17h425.92m1.15-1.15H106.02v326.41h428.23V142.02h0Z"/>
        </g>
        <rect class="uuid-e75ecb8f-6c14-4519-a27e-12528917deca" x="145.87" y="150.58" width="386.1" height="276.41"/>
      </g>
    </mask>
    <clipPath id="uuid-cc00c0d4-1254-4db4-b9f7-187bb5e0faf3">
      <path id="uuid-31a74c39-3425-43f3-bf6c-7af70fa5c38f" data-name="SVGID" class="uuid-8669cd2f-08e5-4ef0-9f4d-7251c35a2656" d="m590.51,764.45s-31.55,26.63-81.51,10.1c-49.96-16.53-50.33-62.35-50.33-62.35,0,0-51.09-1.88-74.47-44.2-20.48-37.06-.28-81.63-.28-81.63,0,0-27.8-6.46-42.45-36.83-14.65-30.37-1.13-58.58-1.13-58.58,0,0-32.46-30.19-19.6-68.76,12.86-38.57,44.01-45.43,44.01-45.43,0,0,1.82-41.76,35.69-74.18,31.18-29.85,81.89-23.11,81.89-23.11,0,0,6.01-43.57,47.33-50.4,41.32-6.83,60.85,21.85,60.85,21.85v513.52Z"/>
    </clipPath>
    <mask id="uuid-62fa7777-ab8f-4f7b-bc33-2ac6e7e20a63" data-name="mask-1" x="106.02" y="142.02" width="428.23" height="326.41" maskUnits="userSpaceOnUse">
      <g>
        <g>
          <rect class="uuid-92c4bd31-a192-47ed-8d68-d620cdc32cd1" x="106.6" y="142.6" width="427.07" height="325.26"/>
          <path class="uuid-e75ecb8f-6c14-4519-a27e-12528917deca" d="m533.1,143.17v324.1H107.18V143.17h425.92m1.15-1.15H106.02v326.41h428.23V142.02h0Z"/>
        </g>
        <rect class="uuid-e75ecb8f-6c14-4519-a27e-12528917deca" x="116.17" y="150.58" width="386.1" height="276.41"/>
      </g>
    </mask>
    <clipPath id="uuid-97e2c795-2988-4034-9b48-fc44aae9444e">
      <path id="uuid-83b0076c-21a5-4801-bf0a-05ffb2be331e" data-name="SVGID" class="uuid-8669cd2f-08e5-4ef0-9f4d-7251c35a2656" d="m161.28,822.94s-12.77,12.89-20.37,9.75c0,0-2.92,10.13,4.75,20.34,7.67,10.21,14.29,9.69,14.29,9.69,0,0-2.38-6.68,2.52-13.7,4.9-7.02,10.91-11.35,10.91-11.35l-12.09-14.72Z"/>
    </clipPath>
    <clipPath id="uuid-a72d575d-74eb-4d91-b016-5366c605a4dd">
      <path id="uuid-c07060d4-f498-4b7c-a614-deaec50eca26" data-name="SVGID" class="uuid-8669cd2f-08e5-4ef0-9f4d-7251c35a2656" d="m234.28,851.06s-1.71,18.45-10.59,20.91c0,0,4.82,9.88,18.87,12.93,14.06,3.05,19.42-1.66,19.42-1.66,0,0-6.91-3.71-7.75-12.42-.84-8.71,1.22-16.03,1.22-16.03l-21.17-3.73Z"/>
    </clipPath>
    <clipPath id="uuid-5456817d-4d6f-410e-99b5-87e1978cea31">
      <path id="uuid-c7f07bf9-18f0-4fbc-bb85-599c01c93a90" data-name="SVGID" class="uuid-8669cd2f-08e5-4ef0-9f4d-7251c35a2656" d="m313.99,311.11s-1.56-15.86-6.19-22.01c-4.63-6.15-19.06-19.37-42.21-13.9-23.15,5.47-24.24,28.56-22.63,39.84,1.6,11.28-1.25,22.56-2.67,26.83-1.42,4.27-5.39,40.67-5.39,40.67l15.35,6.07-.04.1s14.37,38.98,17,14.29c2.45-22.95,15.93-44.28,23.32-45.25,3.27,1.52,6.74,2.87,9.56,1.18,4.14-2.48,3.88-6.44,8.62-14.31,2.6-4.31,3.71-6.18,4.59-11.15,1.25-7.01-1.58-12.58-1.58-12.58-.98-2.7,2.69-6.2,2.27-9.79Z"/>
    </clipPath>
    <clipPath id="uuid-9256cafc-62b9-47fc-a547-e0002bf776ab">
      <path id="uuid-394575f7-f4e7-4847-b4a1-813b292929c4" data-name="SVGID" class="uuid-8669cd2f-08e5-4ef0-9f4d-7251c35a2656" d="m226.68,465.33c2.39,8.97,5.68,20.07,7.13,29.29,1.96,12.49-1.63,27.26-1.63,27.26,0,0,6.83,2,32.82,2s34.15-2.17,34.15-2.17c0,0,.33-17.66-.67-29.15-1-11.49-2.83-25.99-2-31.82.83-5.83,6.83-13.83,5-24.49s-11.66-16.99-14.66-23.49c-3-6.5-12.99-28.49-26.32-28.82-13.33-.33-31.19,1.46-40.86,23.62-6.74,15.46-2.26,23.96,2.45,41.6,1.2,4.51,2.57,8.94,3.84,13.43.26.91.51,1.83.75,2.74Z"/>
    </clipPath>
  </defs>
  <rect class="uuid-92c4bd31-a192-47ed-8d68-d620cdc32cd1" x="140.87" y="157.5" width="386.1" height="274.62"/>
  <path class="uuid-1c03d603-e6f1-46fc-aa74-988b79afbe4c" d="m343.38,296.69c-53.75,34.62-108.47,55.48-167.04,75.49-51.62,17.64-117.02,56.78-132.88,112.02-15.98,55.64,20.59,162.3,169.22,164.27,168.67,2.24,254.86,59.94,345.37,88.52,90.93,28.71,172.67,39.83,250.93,4.34,105.89-48.03,169.73-169.34,167.63-280.35-1.83-97.08-70.53-181.1-153.12-228.04-69.56-39.53-152.39-54.8-232-44.25-138.57,18.36-209.05,82.85-248.1,108Z"/>
  <g class="uuid-7f6662f3-4e2f-404a-842e-695674402f8f">
    <rect class="uuid-99bf3271-8c9d-4b82-a58c-303b629c22ba" x="131.18" y="167.39" width="386.1" height="274.62"/>
  </g>
  <path class="uuid-1c03d603-e6f1-46fc-aa74-988b79afbe4c" d="m590.51,764.45s-31.55,26.63-81.51,10.1c-49.96-16.53-50.33-62.35-50.33-62.35,0,0-51.09-1.88-74.47-44.2-20.48-37.06-.28-81.63-.28-81.63,0,0-27.8-6.46-42.45-36.83-14.65-30.37-1.13-58.58-1.13-58.58,0,0-32.46-30.19-19.6-68.76,12.86-38.57,44.01-45.43,44.01-45.43,0,0,1.82-41.76,35.69-74.18,31.18-29.85,81.89-23.11,81.89-23.11,0,0,6.01-43.57,47.33-50.4,41.32-6.83,60.85,21.85,60.85,21.85v513.52Z"/>
  <g class="uuid-acb37e5d-0b13-4e1e-9253-60d2b7b0d133">
    <g class="uuid-ebc4785d-f6bc-4e39-a347-5311837aa410">
      <rect class="uuid-99bf3271-8c9d-4b82-a58c-303b629c22ba" x="131.18" y="174.26" width="386.1" height="267.74"/>
    </g>
  </g>
  <rect class="uuid-8630f27c-97a0-45dd-b81d-c6da1696742d" x="140.87" y="157.5" width="386.1" height="274.62"/>
  <g>
    <path class="uuid-58b39ae0-347a-4a33-8cfc-97d312c4e03e" d="m320.74,422.2c12.86-38.57,44.01-45.43,44.01-45.43,0,0,1.82-41.76,35.69-74.18,31.18-29.85,81.89-23.11,81.89-23.11,0,0,5.73-41.5,44.42-49.84v-28.06c-96.8,26.19-150.92,74.22-183.36,95.11-53.75,34.62-108.47,55.48-167.04,75.49-11.45,3.91-23.58,8.89-35.7,14.86v45.01h177.73c.48-3.21,1.25-6.5,2.37-9.85Z"/>
    <path class="uuid-6d696ffe-3042-48eb-9423-2c88bf856f77" d="m482.32,279.48s-50.71-6.74-81.89,23.11c-33.87,32.42-35.69,74.18-35.69,74.18,0,0-31.15,6.86-44.01,45.43-1.12,3.35-1.89,6.64-2.37,9.85h208.37v-202.41c-38.69,8.34-44.42,49.84-44.42,49.84Z"/>
  </g>
  <rect class="uuid-5159f4bc-453e-4ec0-bebe-1ef28b285fb9" x="140.87" y="157.5" width="386.1" height="274.62"/>
  <path class="uuid-92c4bd31-a192-47ed-8d68-d620cdc32cd1" d="m590.51,764.45s31.55,26.63,81.51,10.1c49.96-16.53,50.33-62.35,50.33-62.35,0,0,51.09-1.88,74.47-44.2,20.48-37.06.28-81.63.28-81.63,0,0,27.8-6.46,42.45-36.83,14.65-30.37,1.13-58.58,1.13-58.58,0,0,32.46-30.19,19.6-68.76-12.86-38.57-44.01-45.43-44.01-45.43,0,0-1.82-41.76-35.69-74.18-31.18-29.85-81.89-23.11-81.89-23.11,0,0-6.01-43.57-47.33-50.4-41.32-6.83-60.85,21.85-60.85,21.85v513.52Z"/>
  <path class="uuid-f389e060-e7a3-478d-8fdb-39ae3cb8e23c" d="m590.51,764.45s-31.55,26.63-81.51,10.1c-49.96-16.53-50.33-62.35-50.33-62.35,0,0-51.09-1.88-74.47-44.2-20.48-37.06-.28-81.63-.28-81.63,0,0-27.8-6.46-42.45-36.83-14.65-30.37-1.13-58.58-1.13-58.58,0,0-32.46-30.19-19.6-68.76,12.86-38.57,44.01-45.43,44.01-45.43,0,0,1.82-41.76,35.69-74.18,31.18-29.85,81.89-23.11,81.89-23.11,0,0,6.01-43.57,47.33-50.4,41.32-6.83,60.85,21.85,60.85,21.85v513.52Z"/>
  <path class="uuid-f389e060-e7a3-478d-8fdb-39ae3cb8e23c" d="m590.51,764.45s31.55,26.63,81.51,10.1c49.96-16.53,50.33-62.35,50.33-62.35,0,0,51.09-1.88,74.47-44.2,20.48-37.06.28-81.63.28-81.63,0,0,27.8-6.46,42.45-36.83,14.65-30.37,1.13-58.58,1.13-58.58,0,0,32.46-30.19,19.6-68.76-12.86-38.57-44.01-45.43-44.01-45.43,0,0-1.82-41.76-35.69-74.18-31.18-29.85-81.89-23.11-81.89-23.11,0,0-6.01-43.57-47.33-50.4-41.32-6.83-60.85,21.85-60.85,21.85v513.52Z"/>
  <circle class="uuid-3f6ff4e0-7ce4-4f81-a39c-99fe1c4149aa" cx="422.97" cy="555.64" r="5.88"/>
  <g>
    <path class="uuid-ad37e5a8-0c49-4ee8-bb97-81e4c53872f4" d="m458.66,699.78v-41.52c0-4.3-1.71-8.43-4.75-11.47l-19.67-19.66"/>
    <path class="uuid-ad37e5a8-0c49-4ee8-bb97-81e4c53872f4" d="m458.66,665.13v-36.19c0-4.3,1.71-8.43,4.75-11.47l39.89-39.89"/>
    <path class="uuid-ad37e5a8-0c49-4ee8-bb97-81e4c53872f4" d="m458.66,678.84v-79.17c0-5.34-2.12-10.46-5.89-14.23l-29.8-29.8"/>
    <path class="uuid-ad37e5a8-0c49-4ee8-bb97-81e4c53872f4" d="m458.66,712.2v-14.71c0-4.89,3.96-8.85,8.85-8.85h13.75"/>
    <path class="uuid-ad37e5a8-0c49-4ee8-bb97-81e4c53872f4" d="m556.32,673.77v32.23c0,5.34,2.12,10.46,5.89,14.23l23.53,23.53c3.05,3.05,4.76,7.18,4.76,11.49v9.21"/>
  </g>
  <path class="uuid-ad37e5a8-0c49-4ee8-bb97-81e4c53872f4" d="m364.75,376.76h36.33c6.56,0,12.86-2.61,17.5-7.25l41.5-41.5"/>
  <g>
    <circle class="uuid-3f6ff4e0-7ce4-4f81-a39c-99fe1c4149aa" cx="641.99" cy="699.78" r="5.88"/>
    <circle class="uuid-3f6ff4e0-7ce4-4f81-a39c-99fe1c4149aa" cx="694.74" cy="622.95" r="5.88"/>
    <circle class="uuid-3f6ff4e0-7ce4-4f81-a39c-99fe1c4149aa" cx="749.21" cy="597.74" r="5.88"/>
    <circle class="uuid-3f6ff4e0-7ce4-4f81-a39c-99fe1c4149aa" cx="752.91" cy="417.16" r="5.88"/>
    <circle class="uuid-3f6ff4e0-7ce4-4f81-a39c-99fe1c4149aa" cx="761.56" cy="342.69" r="5.88"/>
    <circle class="uuid-3f6ff4e0-7ce4-4f81-a39c-99fe1c4149aa" cx="653.49" cy="574.82" r="5.88"/>
    <circle class="uuid-3f6ff4e0-7ce4-4f81-a39c-99fe1c4149aa" cx="665.24" cy="652.78" r="5.88"/>
    <circle class="uuid-3f6ff4e0-7ce4-4f81-a39c-99fe1c4149aa" cx="746.96" cy="650.36" r="5.88"/>
    <circle class="uuid-3f6ff4e0-7ce4-4f81-a39c-99fe1c4149aa" cx="628.56" cy="332.48" r="5.88"/>
    <circle class="uuid-3f6ff4e0-7ce4-4f81-a39c-99fe1c4149aa" cx="651.73" cy="299.38" r="5.88"/>
    <circle class="uuid-3f6ff4e0-7ce4-4f81-a39c-99fe1c4149aa" cx="721.03" cy="359.26" r="5.88"/>
    <circle class="uuid-3f6ff4e0-7ce4-4f81-a39c-99fe1c4149aa" cx="650.1" cy="363.49" r="5.88"/>
  </g>
  <g>
    <path class="uuid-ad37e5a8-0c49-4ee8-bb97-81e4c53872f4" d="m641.99,699.78h-12.63c-5.34,0-10.46,2.12-14.23,5.89l-19.87,19.87c-3.05,3.05-4.76,7.18-4.76,11.49v8.72"/>
    <path class="uuid-ad37e5a8-0c49-4ee8-bb97-81e4c53872f4" d="m722.35,712.2v-55.03c0-4.23-1.68-8.3-4.68-11.29l-22.93-22.93"/>
    <path class="uuid-ad37e5a8-0c49-4ee8-bb97-81e4c53872f4" d="m722.35,676.29v-42.32c0-6,2.38-11.75,6.62-15.99l20.23-20.23"/>
    <path class="uuid-ad37e5a8-0c49-4ee8-bb97-81e4c53872f4" d="m746.96,650.36l-19.93,19.93c-2.99,2.99-4.68,7.06-4.68,11.29v10.67"/>
    <path class="uuid-ad37e5a8-0c49-4ee8-bb97-81e4c53872f4" d="m653.49,574.82v46.78c0,4.21-1.67,8.25-4.65,11.22l-53.55,53.55c-3.05,3.05-4.76,7.18-4.76,11.49v13.39"/>
    <path class="uuid-ad37e5a8-0c49-4ee8-bb97-81e4c53872f4" d="m665.24,652.78h-28.7c-4.9,0-9.61,1.95-13.07,5.41l-4.73,4.73"/>
    <path class="uuid-ad37e5a8-0c49-4ee8-bb97-81e4c53872f4" d="m816.26,376.76c-4.41-.93-8.18-1.4-11.28-1.6-6.03-.39-11.93,1.85-16.2,6.13l-35.87,35.87"/>
    <path class="uuid-ad37e5a8-0c49-4ee8-bb97-81e4c53872f4" d="m650.1,362.57h-15.25c-4.21,0-8.25,1.67-11.22,4.65l-28.36,28.36c-3.05,3.05-4.76,7.18-4.76,11.49v18.05"/>
    <path class="uuid-ad37e5a8-0c49-4ee8-bb97-81e4c53872f4" d="m628.28,331.2v22.68c0,5.57-2.21,10.9-6.15,14.84l-3.27,3.27"/>
    <path class="uuid-ad37e5a8-0c49-4ee8-bb97-81e4c53872f4" d="m698.69,279.48c-.05,0-.11,0-.16.01-8.02.66-14.09,7.57-14.09,15.62v20.99c0,4.21,1.67,8.25,4.65,11.22l31.94,31.94"/>
    <line class="uuid-ad37e5a8-0c49-4ee8-bb97-81e4c53872f4" x1="684.44" y1="299.38" x2="647.98" y2="299.38"/>
    <path class="uuid-ad37e5a8-0c49-4ee8-bb97-81e4c53872f4" d="m761.56,342.69l26.86,27.49c3.09,3.16,7.33,4.95,11.75,4.95h3.59"/>
  </g>
  <rect class="uuid-3f6ff4e0-7ce4-4f81-a39c-99fe1c4149aa" x="166.77" y="268.41" width="22.35" height="55.36"/>
  <rect class="uuid-6d696ffe-3042-48eb-9423-2c88bf856f77" x="206.33" y="224.04" width="22.35" height="99.73"/>
  <rect class="uuid-1c03d603-e6f1-46fc-aa74-988b79afbe4c" x="245.88" y="238.14" width="22.35" height="85.63"/>
  <g>
    <path class="uuid-ad37e5a8-0c49-4ee8-bb97-81e4c53872f4" d="m590.51,355.13v-14.77c0-5.28-2.1-10.34-5.83-14.07l-16.46-16.46"/>
    <g>
      <polyline class="uuid-f0206eed-70b5-4194-af63-e612dc3d55c5" points="641.17 476.08 662.47 480.75 667.92 455.84"/>
      <polyline class="uuid-f0206eed-70b5-4194-af63-e612dc3d55c5" points="539.85 526.27 518.54 521.61 513.09 546.51"/>
      <path class="uuid-f0206eed-70b5-4194-af63-e612dc3d55c5" d="m518.72,521.56c8.87,31.3,37.65,54.23,71.79,54.23,41.2,0,74.61-33.4,74.61-74.61l251.07-.08"/>
      <path class="uuid-f0206eed-70b5-4194-af63-e612dc3d55c5" d="m662.3,480.8c-8.87-31.3-37.65-54.23-71.79-54.23-41.2,0-74.61,33.4-74.61,74.61l-337.07-.08"/>
    </g>
  </g>
  <g>
    <circle class="uuid-7cfbc082-e4ce-4f3d-a395-9b26b240f791" cx="434.24" cy="627.13" r="5.88"/>
    <circle class="uuid-7cfbc082-e4ce-4f3d-a395-9b26b240f791" cx="500.49" cy="580.4" r="5.88"/>
    <circle class="uuid-7cfbc082-e4ce-4f3d-a395-9b26b240f791" cx="556.32" cy="670.01" r="5.88"/>
    <circle class="uuid-7cfbc082-e4ce-4f3d-a395-9b26b240f791" cx="460.08" cy="328.01" r="5.88"/>
    <circle class="uuid-7cfbc082-e4ce-4f3d-a395-9b26b240f791" cx="481.26" cy="688.64" r="5.88"/>
    <circle class="uuid-7cfbc082-e4ce-4f3d-a395-9b26b240f791" cx="568.22" cy="309.83" r="5.88"/>
  </g>
  <g>
    <rect class="uuid-b363bd42-bc6b-4d1f-a7b7-fd7b6ad0827b" x="908.69" y="487.4" width="130.15" height="27.38" rx="13.69" ry="13.69"/>
    <rect class="uuid-341038d4-c2a5-45ec-9f76-55437e3649b2" x="908.69" y="441.98" width="108.65" height="27.38" rx="13.69" ry="13.69"/>
    <rect class="uuid-341038d4-c2a5-45ec-9f76-55437e3649b2" x="908.69" y="532.83" width="108.65" height="27.38" rx="13.69" ry="13.69"/>
    <rect class="uuid-341038d4-c2a5-45ec-9f76-55437e3649b2" x="908.69" y="578.26" width="108.65" height="27.38" rx="13.69" ry="13.69"/>
  </g>
  <g>
    <rect class="uuid-3f6ff4e0-7ce4-4f81-a39c-99fe1c4149aa" x="140.87" y="157.5" width="386.1" height="30.37"/>
    <circle class="uuid-92c4bd31-a192-47ed-8d68-d620cdc32cd1" cx="507.45" cy="172.68" r="5.93"/>
  </g>
  <rect class="uuid-341038d4-c2a5-45ec-9f76-55437e3649b2" x="60.33" y="487.4" width="130.15" height="27.38" rx="13.69" ry="13.69"/>
  <path class="uuid-3f6ff4e0-7ce4-4f81-a39c-99fe1c4149aa" d="m504.84,630.23v-2.92h5.43v-12.44c-.18.37-.45.72-.83,1.05-.38.33-.81.62-1.31.86s-1.04.44-1.63.58-1.19.22-1.81.22v-2.99c.69,0,1.33-.08,1.93-.24s1.14-.38,1.63-.66.93-.62,1.31-1.01c.38-.39.69-.82.93-1.28h3.71v15.92h4.51v2.92h-13.87Z"/>
  <path class="uuid-3f6ff4e0-7ce4-4f81-a39c-99fe1c4149aa" d="m498.65,649.54c0,1.78-.17,3.28-.52,4.52-.34,1.23-.82,2.23-1.43,3-.61.77-1.33,1.32-2.16,1.67s-1.74.52-2.73.52-1.89-.17-2.72-.51-1.54-.89-2.14-1.66-1.06-1.77-1.4-3-.5-2.74-.5-4.53.17-3.43.5-4.68c.33-1.25.8-2.24,1.4-2.99s1.33-1.27,2.17-1.58,1.78-.46,2.8-.46c.96,0,1.85.15,2.67.46.82.31,1.54.83,2.14,1.58s1.07,1.74,1.41,2.99.51,2.81.51,4.68Zm-3.94,0c0-1.28-.05-2.35-.15-3.2s-.27-1.53-.49-2.04-.51-.87-.87-1.08-.79-.31-1.31-.31c-.55,0-1.01.11-1.38.32s-.67.58-.9,1.09-.39,1.19-.49,2.05-.15,1.91-.15,3.18.05,2.29.15,3.14.27,1.53.49,2.05.52.88.88,1.1.81.33,1.34.33.95-.11,1.31-.33.66-.59.89-1.1.4-1.2.51-2.05c.11-.85.16-1.89.16-3.14Z"/>
  <path class="uuid-3f6ff4e0-7ce4-4f81-a39c-99fe1c4149aa" d="m553.3,604.67c0,1.78-.17,3.28-.52,4.52-.34,1.23-.82,2.23-1.43,3s-1.33,1.32-2.16,1.67-1.74.52-2.73.52-1.89-.17-2.72-.51c-.83-.34-1.54-.89-2.14-1.66s-1.06-1.77-1.4-3-.5-2.74-.5-4.53.17-3.43.5-4.68c.33-1.25.8-2.24,1.4-2.99s1.33-1.27,2.17-1.58c.84-.31,1.78-.46,2.8-.46.96,0,1.85.15,2.67.46.82.31,1.54.83,2.14,1.58s1.07,1.74,1.41,2.99c.34,1.25.51,2.81.51,4.68Zm-3.94,0c0-1.28-.05-2.35-.15-3.2-.1-.85-.27-1.53-.49-2.04s-.51-.87-.87-1.08c-.36-.21-.79-.31-1.31-.31-.55,0-1.01.11-1.38.32s-.67.58-.9,1.09-.39,1.19-.49,2.05-.15,1.91-.15,3.18.05,2.29.15,3.14.27,1.53.49,2.05.52.88.88,1.1.81.33,1.34.33.95-.11,1.31-.33.66-.59.89-1.1.4-1.2.51-2.05.16-1.89.16-3.14Z"/>
  <g>
    <path class="uuid-3f6ff4e0-7ce4-4f81-a39c-99fe1c4149aa" d="m716.88,412.78v-2.92h5.43v-12.44c-.18.37-.45.72-.83,1.05-.38.33-.81.62-1.31.86s-1.04.44-1.63.58-1.19.22-1.81.22v-2.99c.69,0,1.33-.08,1.93-.24s1.14-.38,1.63-.66.93-.62,1.31-1.01.69-.82.93-1.28h3.71v15.92h4.51v2.92h-13.87Z"/>
    <path class="uuid-3f6ff4e0-7ce4-4f81-a39c-99fe1c4149aa" d="m748.24,480.26v-2.92h5.43v-12.44c-.18.37-.45.72-.83,1.05s-.81.62-1.31.86-1.04.44-1.63.58c-.59.14-1.19.22-1.81.22v-2.99c.69,0,1.33-.08,1.93-.24s1.14-.38,1.63-.66.93-.62,1.31-1.01.69-.82.93-1.28h3.71v15.92h4.51v2.92h-13.87Z"/>
    <path class="uuid-3f6ff4e0-7ce4-4f81-a39c-99fe1c4149aa" d="m699.91,434.68c0,1.78-.17,3.28-.52,4.52-.34,1.23-.82,2.23-1.43,3s-1.33,1.32-2.16,1.67-1.74.52-2.73.52-1.89-.17-2.72-.51-1.54-.89-2.14-1.66-1.06-1.77-1.4-3c-.34-1.23-.5-2.74-.5-4.53s.17-3.43.5-4.68c.33-1.25.8-2.24,1.4-2.99.61-.74,1.33-1.27,2.17-1.58s1.78-.46,2.8-.46c.96,0,1.85.15,2.67.46s1.54.83,2.14,1.58c.6.74,1.07,1.74,1.41,2.99s.51,2.81.51,4.68Zm-3.94,0c0-1.28-.05-2.35-.15-3.2s-.27-1.53-.49-2.04c-.22-.51-.51-.87-.87-1.08s-.79-.31-1.31-.31c-.55,0-1.01.11-1.38.32s-.67.58-.9,1.09-.39,1.19-.49,2.05-.15,1.91-.15,3.18.05,2.29.15,3.14c.1.85.27,1.53.49,2.05s.52.88.88,1.1c.36.22.81.33,1.34.33s.95-.11,1.31-.33.66-.59.89-1.1.4-1.2.51-2.05c.11-.85.16-1.89.16-3.14Z"/>
    <path class="uuid-3f6ff4e0-7ce4-4f81-a39c-99fe1c4149aa" d="m818.54,529.9c0,2.03-.2,3.76-.59,5.17-.39,1.41-.94,2.56-1.64,3.44-.7.88-1.52,1.52-2.48,1.91s-1.99.59-3.12.59-2.17-.19-3.12-.58-1.76-1.02-2.44-1.9-1.21-2.02-1.6-3.44-.58-3.14-.58-5.18.19-3.93.57-5.35c.38-1.43.91-2.57,1.61-3.42.69-.85,1.52-1.45,2.48-1.81s2.03-.53,3.2-.53c1.1,0,2.12.18,3.06.53s1.76.95,2.44,1.81c.69.85,1.23,1.99,1.61,3.42.39,1.43.58,3.21.58,5.35Zm-4.51,0c0-1.47-.06-2.69-.18-3.66-.12-.97-.3-1.75-.56-2.33-.26-.59-.59-1-1-1.24s-.91-.36-1.49-.36c-.63,0-1.16.12-1.58.37s-.77.66-1.03,1.25-.45,1.37-.56,2.34-.17,2.19-.17,3.64.06,2.63.18,3.6.3,1.75.56,2.34.59,1.01,1.01,1.26c.42.25.93.38,1.53.38s1.09-.13,1.5-.38c.42-.25.76-.67,1.02-1.26s.46-1.37.58-2.34c.12-.97.18-2.17.18-3.6Z"/>
  </g>
  <g>
    <path class="uuid-3f6ff4e0-7ce4-4f81-a39c-99fe1c4149aa" d="m158.53,501.09c0,1.37-.13,2.52-.4,3.47-.26.95-.63,1.72-1.1,2.31-.47.59-1.02,1.02-1.66,1.28s-1.34.4-2.1.4-1.46-.13-2.09-.39-1.18-.69-1.64-1.28-.82-1.36-1.07-2.31c-.26-.95-.39-2.11-.39-3.48s.13-2.64.38-3.6c.25-.96.61-1.72,1.08-2.3.47-.57,1.02-.98,1.67-1.21.65-.24,1.36-.35,2.15-.35.74,0,1.42.12,2.06.35.63.24,1.18.64,1.64,1.21s.82,1.34,1.08,2.3.39,2.16.39,3.6Zm-3.03,0c0-.99-.04-1.81-.12-2.46s-.2-1.17-.38-1.57-.4-.67-.67-.83-.61-.24-1-.24c-.42,0-.78.08-1.06.25s-.52.44-.69.84-.3.92-.38,1.57c-.08.65-.11,1.47-.11,2.44s.04,1.76.12,2.41.2,1.18.38,1.57.4.68.68.85.62.25,1.03.25.73-.08,1.01-.25.51-.45.69-.85.31-.92.39-1.57.12-1.46.12-2.41Z"/>
    <path class="uuid-3f6ff4e0-7ce4-4f81-a39c-99fe1c4149aa" d="m130.76,508.33v-2.24h4.17v-9.56c-.14.29-.35.56-.64.81s-.63.47-1.01.66-.8.33-1.26.45-.92.17-1.39.17v-2.3c.53,0,1.02-.06,1.48-.18s.88-.29,1.26-.51.71-.48,1-.78.53-.63.71-.99h2.85v12.23h3.47v2.24h-10.66Z"/>
    <path class="uuid-3f6ff4e0-7ce4-4f81-a39c-99fe1c4149aa" d="m166.55,508.33v-2.24h4.17v-9.56c-.14.29-.35.56-.64.81s-.63.47-1.01.66-.8.33-1.26.45-.92.17-1.39.17v-2.3c.53,0,1.02-.06,1.48-.18s.88-.29,1.26-.51.71-.48,1-.78c.29-.3.53-.63.71-.99h2.85v12.23h3.47v2.24h-10.66Z"/>
    <path class="uuid-3f6ff4e0-7ce4-4f81-a39c-99fe1c4149aa" d="m122.73,501.09c0,1.37-.13,2.52-.4,3.47-.26.95-.63,1.72-1.1,2.31s-1.02,1.02-1.66,1.28-1.34.4-2.1.4-1.46-.13-2.09-.39-1.18-.69-1.64-1.28-.82-1.36-1.07-2.31-.39-2.11-.39-3.48.13-2.64.38-3.6.61-1.72,1.08-2.3c.47-.57,1.02-.98,1.67-1.21.65-.24,1.36-.35,2.15-.35.74,0,1.42.12,2.06.35s1.18.64,1.64,1.21.82,1.34,1.08,2.3.39,2.16.39,3.6Zm-3.03,0c0-.99-.04-1.81-.12-2.46s-.2-1.17-.38-1.57-.4-.67-.67-.83-.61-.24-1-.24c-.42,0-.78.08-1.06.25s-.52.44-.69.84-.3.92-.38,1.57c-.08.65-.11,1.47-.11,2.44s.04,1.76.12,2.41c.08.65.2,1.18.38,1.57s.4.68.68.85.62.25,1.03.25.73-.08,1.01-.25.51-.45.69-.85.31-.92.39-1.57.12-1.46.12-2.41Z"/>
    <path class="uuid-3f6ff4e0-7ce4-4f81-a39c-99fe1c4149aa" d="m94.96,508.33v-2.24h4.17v-9.56c-.14.29-.35.56-.64.81s-.63.47-1.01.66-.8.33-1.26.45-.92.17-1.39.17v-2.3c.53,0,1.02-.06,1.48-.18s.88-.29,1.26-.51.71-.48,1-.78.53-.63.71-.99h2.85v12.23h3.47v2.24h-10.66Z"/>
    <path class="uuid-3f6ff4e0-7ce4-4f81-a39c-99fe1c4149aa" d="m86.93,501.09c0,1.37-.13,2.52-.4,3.47-.26.95-.63,1.72-1.1,2.31s-1.02,1.02-1.66,1.28-1.34.4-2.1.4-1.46-.13-2.09-.39-1.18-.69-1.64-1.28-.82-1.36-1.07-2.31c-.26-.95-.39-2.11-.39-3.48s.13-2.64.38-3.6.61-1.72,1.08-2.3c.47-.57,1.02-.98,1.67-1.21.65-.24,1.36-.35,2.15-.35.74,0,1.42.12,2.06.35.63.24,1.18.64,1.64,1.21s.82,1.34,1.08,2.3c.26.96.39,2.16.39,3.6Zm-3.03,0c0-.99-.04-1.81-.12-2.46s-.2-1.17-.38-1.57-.4-.67-.67-.83-.61-.24-1-.24c-.42,0-.78.08-1.06.25s-.52.44-.69.84-.3.92-.38,1.57-.11,1.47-.11,2.44.04,1.76.12,2.41.2,1.18.38,1.57.4.68.68.85.62.25,1.03.25.73-.08,1.01-.25.51-.45.69-.85.31-.92.39-1.57.12-1.46.12-2.41Z"/>
  </g>
  <g>
    <g>
      <path class="uuid-d3c37d42-0588-40d8-b6c8-69e854eacf98" d="m161.28,822.94s-12.77,12.89-20.37,9.75c0,0-2.92,10.13,4.75,20.34,7.67,10.21,14.29,9.69,14.29,9.69,0,0-2.38-6.68,2.52-13.7,4.9-7.02,10.91-11.35,10.91-11.35l-12.09-14.72Z"/>
      <g class="uuid-02a42c06-3d79-4ada-820a-1ee4d23780c2">
        <path class="uuid-8cadc011-3ed6-4374-825e-558a3361db1f" d="m142.86,839.93c6.13-3.28,14.01-7.42,14.01-7.42,0,0,10.08,5.22,16.5,6.37,6.43,1.15.81.14.81.14l-15.47-17.85-17.4,8.37-5.37,9.5"/>
      </g>
      <path class="uuid-c3467af5-6325-43d8-8b44-b506b6432b9b" d="m121.65,846.93c-1.58,6.96-12.82,17.79-12.82,17.79,0,0-1.43,2.6,2.49,5.93,3.38,2.88,4.75,2.66,6.33,2.02,0,0,8.13-8.59,10.14-10.82,2.47-2.72,4.73.53,4.73.53,0,0,.89-4.18-3.53-9.88-4.42-5.7-7.34-5.57-7.34-5.57Z"/>
      <path class="uuid-e75ecb8f-6c14-4519-a27e-12528917deca" d="m143.52,830.61s2.28-.82,2.88.62c1.7,4.05-2.36,10.92,1.45,17.99,3.81,7.07,11.91,6.61,14.75,6.41,0,0-1.4,12.6-2.47,20.74-1.07,8.14-2.91,9.87,2.86,13.44,5.76,3.57,7.33,6.09,6.05,11.13-.49,1.94-2.29,4.97-3.06,6,0,0-6.99.07-14.38-3.9-4.92-2.64-11.02-6.04-13.02-11.28-1.53-4-1.06-7.98-.64-12.21.56-5.72-.16-10.96-3.92-15.43-7.66-9.09-12.07-11.78-12.37-17.19,0,0-1.33-3.83,5.51-8.3,5.2-3.4,6.5-1.74,16.36-8.02Z"/>
    </g>
    <path class="uuid-906412ec-51f6-4d06-bcda-98c51880946b" d="m158.72,890.73s5.35,2.99,6.83,5.11c1.11,1.6,1.01,3.85.12,6.02"/>
    <g>
      <path class="uuid-d3c37d42-0588-40d8-b6c8-69e854eacf98" d="m234.28,851.06s-1.71,18.45-10.59,20.91c0,0,4.82,9.88,18.87,12.93,14.06,3.05,19.42-1.66,19.42-1.66,0,0-6.91-3.71-7.75-12.42-.84-8.71,1.22-16.03,1.22-16.03l-21.17-3.73Z"/>
      <g class="uuid-9e6b1c88-e910-4a7e-8c48-6a18e3794874">
        <path class="uuid-8cadc011-3ed6-4374-825e-558a3361db1f" d="m232.46,876.88s5.79-8.47,7.18-14.49c0,0,9.97.09,14.71-1.46l-21.89-6.18-8.16,20.84"/>
      </g>
      <path class="uuid-c3467af5-6325-43d8-8b44-b506b6432b9b" d="m216.87,895.56c3.56,6.57,1.38,22.39,1.38,22.39,0,0,.59,2.98,6.4,3.16,5.01.15,6.06-.89,6.99-2.41,0,0,1.03-12.04,1.22-15.11.23-3.75,4.53-2.58,4.53-2.58,0,0-2.19-3.91-10.12-5.66-7.93-1.74-10.4.22-10.4.22Z"/>
      <path class="uuid-e75ecb8f-6c14-4519-a27e-12528917deca" d="m224.48,868.6s1.41-2.11,2.97-1.34c4.37,2.15,5.69,10.24,14.06,13.47,8.36,3.23,15.15-2.3,17.5-4.26,0,0,7.72,10.97,12.56,18.16,4.84,7.19,6.6,10.96,14.16,11.39s10.45,1.96,11.97,7.19c.58,2.01.49,5.65.3,6.97,0,0-6.76,3.48-16.11,3.48-6.23,0-12.83-.09-18.31-3.01-4.18-2.23-6.6-5.71-9.24-9.36-3.57-4.93-7.92-8.67-14.4-9.85-13.18-2.4-18.96-1.74-23.07-5.88,0,0-3.88-2.22-1.06-10.15,2.15-6.03,4.47-5.53,8.67-16.82Z"/>
    </g>
    <path class="uuid-906412ec-51f6-4d06-bcda-98c51880946b" d="m282.08,908.94s6.84.1,9.43,1.32c1.95.91,3.09,3.02,3.41,5.43"/>
    <path class="uuid-e75ecb8f-6c14-4519-a27e-12528917deca" d="m238.8,693.97c.11,11.92-3,25.8-8.45,34.82s-24.42,31.79-36.19,46.79c-11.77,15-23.31,28.21-25.82,40.06,0,0-1.39,2.18-4.2,4.61s-7.39,5.41-7.39,5.41c0,0-1.21,1.66,7.63,7.82,8.84,6.16,9.81,5.54,9.81,5.54,0,0,8.05-7.34,13.79-8.86,0,0,20.15-9.1,33.81-18.74,13.66-9.64,31.81-29.63,50.4-51.14,18.59-21.51,14.47-21.79,21.07-36.85,6.6-15.07-5.4-30.74-19.05-35.16-13.65-4.42-34.53-2-34.53-2,0,0-.95.29-.88,7.71Z"/>
    <path class="uuid-d7442d65-cd60-48f8-b9fa-8b413a97ef83" d="m169.87,819.25s4.83,7.45,15.24,10.28"/>
    <path class="uuid-8cadc011-3ed6-4374-825e-558a3361db1f" d="m354.42,447.8c6.31-4.18,12.45-10.18,15.17-12.64,2.72-2.46,9.65-16.56,12.42-18.8s3.61,21.81,2.26,26.29c-1.35,4.49-8.14,6.44-8.14,6.44,0,0-7.35,5.8-12.77,11.88-5.42,6.08-8.94-13.18-8.94-13.18Z"/>
    <path class="uuid-6f4c1a6c-3a78-433d-80ec-01f5451b308a" d="m421.99,427.45c2.18.22,3.48.87,3.26,2.39s-2.39,2.61-4.57,2.39c-2.18-.22-6.53-2.83-6.53-2.83"/>
    <path class="uuid-b1653980-8cd8-4ee7-9e08-317a4fcd0150" d="m292.09,357.87c-6.85-2.39-22.26,20.43-24.89,45.13-2.63,24.69-17-14.29-17-14.29l12.69-31.67,19.21-16.2"/>
    <ellipse class="uuid-92c4bd31-a192-47ed-8d68-d620cdc32cd1" cx="311.35" cy="320.9" rx="5.97" ry="10.93"/>
    <path class="uuid-d3c37d42-0588-40d8-b6c8-69e854eacf98" d="m310.99,318.82c1.62,4.14,2.51,5.53,3.63,6.9,1.12,1.38,2.12,2.2,2.11,4.02,0,1.09-1.19,2.37-2.94,3.75-1.74,1.38-5.79,1.87-5.79,1.87"/>
    <path class="uuid-e75ecb8f-6c14-4519-a27e-12528917deca" d="m406.21,453.61l-48.65-15.73c-1.96-.63-4.04-5.35-2.7-7.36l48.71-68.92c1.34-2.01,4.02-3.13,5.98-2.5l50.01,14.1c.98,1.29,1.59,4.54.25,6.55l-47.62,71.36c-1.34,2.01-4.02,3.13-5.98,2.5Z"/>
    <g>
      <g>
        <path class="uuid-92c4bd31-a192-47ed-8d68-d620cdc32cd1" d="m406.61,450.07c-.36,0-.69-.05-1-.15l-49.14-15.86c-.68-.22-1.14-.65-1.35-1.25-.27-.78-.08-1.75.54-2.67l47.62-71.36c.95-1.42,2.73-2.42,4.33-2.42.36,0,.69.05,1,.15l49.14,15.86c.68.22,1.14.65,1.35,1.25.27.78.08,1.75-.54,2.67l-47.62,71.36c-.95,1.42-2.73,2.42-4.33,2.42Z"/>
        <path class="uuid-c3467af5-6325-43d8-8b44-b506b6432b9b" d="m407.59,356.94h0c.3,0,.57.04.82.12l49.14,15.86c.51.16.84.46.99.89.21.61.04,1.39-.47,2.16l-47.62,71.36c-.85,1.27-2.43,2.16-3.85,2.16-.3,0-.57-.04-.82-.12l-49.14-15.86c-.51-.16-.84-.46-.99-.89-.21-.61-.04-1.39.47-2.16l47.62-71.36c.85-1.27,2.43-2.16,3.85-2.16m0-1.15c-1.75,0-3.72,1.04-4.81,2.68l-47.62,71.36c-1.34,2.01-.84,4.16,1.12,4.79l49.14,15.86c.37.12.77.18,1.18.18,1.75,0,3.72-1.04,4.81-2.68l47.62-71.36c1.34-2.01.84-4.16-1.12-4.79l-49.14-15.86c-.37-.12-.77-.18-1.18-.18h0Z"/>
      </g>
      <path class="uuid-c3467af5-6325-43d8-8b44-b506b6432b9b" d="m456.04,381.1l-56.24-18.15,3.05-4.57c1.28-1.92,3.83-2.98,5.7-2.38l49.48,15.97c1.87.6,2.35,2.65,1.07,4.56l-3.05,4.57Z"/>
      <g>
        <ellipse class="uuid-3f6ff4e0-7ce4-4f81-a39c-99fe1c4149aa" cx="420.56" cy="407.56" rx="7.32" ry="5.3" transform="translate(-155.78 303.57) rotate(-33.87)"/>
        <ellipse class="uuid-3f6ff4e0-7ce4-4f81-a39c-99fe1c4149aa" cx="404.81" cy="402.48" rx="5.26" ry="3.81" transform="translate(-155.62 293.93) rotate(-33.87)"/>
        <ellipse class="uuid-3f6ff4e0-7ce4-4f81-a39c-99fe1c4149aa" cx="391.36" cy="398.14" rx="3.2" ry="2.31" transform="translate(-155.48 285.7) rotate(-33.87)"/>
      </g>
    </g>
    <path class="uuid-3522d0f8-8e3f-4dfe-9d5a-3d370dc77b34" d="m304.26,471.16c4.8-.28,40.28-17.01,54.54-27.81,0,0,4.12.12,6.23,2.73s4.13,6,4.08,11.64c-.04,5.64-15.74,23.91-15.74,23.91,0,0-25.32,17.57-35.13,19.46-9.82,1.89-13.98-29.94-13.98-29.94Z"/>
    <ellipse class="uuid-ad37e5a8-0c49-4ee8-bb97-81e4c53872f4" cx="311.35" cy="320.9" rx="5.97" ry="10.93"/>
    <path class="uuid-d3c37d42-0588-40d8-b6c8-69e854eacf98" d="m313.99,311.11c.41,3.59-3.25,7.09-2.27,9.79,0,0,2.82,5.57,1.58,12.58-.88,4.97-1.99,6.83-4.59,11.15-4.74,7.87-4.49,11.83-8.62,14.31-5.88,3.52-14.61-6.12-18.34-3.14,0,0-9.77,6.76-18.85,14.79-9.08,8.03-11.58,18.46-11.58,18.46l-16.43-6.49s3.96-36.4,5.39-40.67c1.42-4.27,4.27-15.55,2.67-26.83-1.6-11.28-.52-34.38,22.63-39.84,23.15-5.47,37.58,7.75,42.21,13.9s6.19,22.01,6.19,22.01Z"/>
    <g class="uuid-673d1ce0-f67c-44c8-bcec-ed779f55e267">
      <path class="uuid-8cadc011-3ed6-4374-825e-558a3361db1f" d="m292.09,336.38c1.38,1.12.91,9.26.91,13.02s1.93,8.96,3.85,9.52,2.78.24,2.78.24c0,0-.37,2.32-5.43,2.75-5.06.43-10.61,4.71-12.46,8.05s-7.29,11.01-7.29,11.01l-4,6.6-7.34-11.56-1.46-10,5.65-10.88,7.15-10.36,9.12-15.16,7.02-1.2,2.14,2.14,1.46,2.06"/>
    </g>
    <path class="uuid-3f6ff4e0-7ce4-4f81-a39c-99fe1c4149aa" d="m226.68,465.33c2.39,8.97,5.68,20.07,7.13,29.29,1.96,12.49-1.63,27.26-1.63,27.26,0,0,6.83,2,32.82,2s34.15-2.17,34.15-2.17c0,0,.33-17.66-.67-29.15-1-11.49-2.83-25.99-2-31.82.83-5.83,6.83-13.83,5-24.49s-11.66-16.99-14.66-23.49c-3-6.5-12.99-28.49-26.32-28.82-13.33-.33-31.19,1.46-40.86,23.62-6.74,15.46-2.26,23.96,2.45,41.6,1.2,4.51,2.57,8.94,3.84,13.43.26.91.51,1.83.75,2.74Z"/>
    <g class="uuid-f2ee91f8-98ad-4d42-9794-3a91475d0630">
      <path class="uuid-3522d0f8-8e3f-4dfe-9d5a-3d370dc77b34" d="m248.18,416.22s10.27,14.88,10.76,49.89c.5,35.01,1.65,54.54,17.85,70.71,16.2,16.17,12.4-30.37,12.4-30.37l-14.18-76.56-9.79-17.25"/>
      <path class="uuid-3522d0f8-8e3f-4dfe-9d5a-3d370dc77b34" d="m274.39,375.64s-.84,6.86-22.4,22.39c-21.56,15.54-27.74,44.4-17.09,74.23,10.64,29.83,10.42,35.14,9.92,62.49-.5,27.35-25.98-4.35-25.98-4.35l-11.96-48.48-3.89-41.02,4.87-17.4,14.13-19.89,11.69-12.43,12.31-12.43,7.37-10.57,6.16-5.59"/>
    </g>
    <path class="uuid-d3c37d42-0588-40d8-b6c8-69e854eacf98" d="m352.34,461.23c9.75-7.46,14.62-14.99,16.78-17.48,2.16-2.49,3.66-5.94,4.68-9.16,1.02-3.22,9.56-1.12,12.74,1.53s.34,11.46.34,11.46c0,0-5.41,2.96-8.58,7.47-11.7,16.67-18.15,31.24-22.82,33.87"/>
    <path class="uuid-d3c37d42-0588-40d8-b6c8-69e854eacf98" d="m367.27,446.17c1.86-3.22,7.86-18.25,8.49-21.8.63-3.55.06-4.59,2.76-6.8,2.7-2.21,6.88-5.45,9.01-6.61,2.13-1.16,4.48-2.38,7.91-4.23s5.94-3.7,6.89-3.99,1.35-.48,1.93-.11c.58.36,1.09,1.33-1.07,3.88-2.17,2.54-8.31,5.87-11.38,8.95,0,0,.96-.5,2.55-.21,1.59.29,2.61,1.28,2.77,1.9.16.62-.2,1.58-.2,1.58,0,0,1.71-.27,2.67.08s2.14,1.15,2.27,2.42-.17,2.68-.17,2.68c0,0,1.08-.21,1.88.44.8.65,1.44,2.32,1.26,4.08-.18,1.76-.79,4.67-1.5,5.75s-3.2,2.63-4.57,3.6c-1.36.97-2.78-.25-2.83-.71s.13-2.21.13-2.21c0,0-2.88,3.17-4.22,6.72-1.34,3.54-4.69,6.72-6.39,8.38-1.7,1.65-7.34,4.81-8.9,7.36"/>
    <path class="uuid-c3467af5-6325-43d8-8b44-b506b6432b9b" d="m233.37,513.82c-.48,7.74-13.19,29.31-17.95,48.83-4.31,17.68,1.31,41.33,8.45,63.04,3.25,9.88,13.84,40.27,14.96,60.96.88,16.18-3.18,39.98,15.71,41.77,18.89,1.8,46.13-13.97,47.88-42.46,1.75-28.49,1.44-59.51-.65-83.38-2.09-23.88-7.41-56.15-6.96-63.48.45-7.33-.19-24.75-.19-24.75,0,0-50.75-6.61-61.24-.53Z"/>
    <g>
      <path class="uuid-c3467af5-6325-43d8-8b44-b506b6432b9b" d="m239.17,713.62c-.08,10.62-10.4,47.64-13.62,66.24-3.22,18.6-.14,53.43,7.62,62.5l-1.72,14.54s-1.31,2.04,10.82,3.41c12.13,1.36,14.49.27,14.49.27.04-9.05,4.45-18.45,4.45-18.45,6.66-9.85,15.87-29.76,19.85-40.96,14.51-40.79,19.47-92.41,20.82-110.57,1.28-17.22-22.31-18.1-37.83-18.1s-27.68-4.96-27.68-4.96c0,0,3.03,17.05,2.8,46.09Z"/>
      <path class="uuid-56ed4998-bebe-47ee-94a3-9aaa66ca4665" d="m235.15,843.75s11.23,4.41,22.55,1.61"/>
    </g>
    <path class="uuid-e75ecb8f-6c14-4519-a27e-12528917deca" d="m294.81,539.11c.45-7.33-.19-24.75-.19-24.75,0,0-13.93-1.82-28.71-2.67-13.42-.78-27.54-.76-32.53,2.14-.14,2.36-1.43,6.01-3.28,10.5-4.21,10.22-11.36,24.77-14.67,38.34-4.31,17.68,1.31,41.33,8.45,63.04,1.88,5.71,6.21,18.29,9.75,31.87-2.39-23.01-6.39-43.42-8.84-55.93-5.97-30.4,2.35-42.26,6.46-51.43,2.73-6.09,7.69-17.83,10.69-27.1,7.56-.47,17.91-.61,29.76.6,6.4,8.99,15.12,18.13,23.55,23.39-.36-3.62-.53-6.4-.43-7.99Z"/>
    <g>
      <line class="uuid-ad37e5a8-0c49-4ee8-bb97-81e4c53872f4" x1="294.21" y1="315.75" x2="319.98" y2="315.75"/>
      <path class="uuid-e75ecb8f-6c14-4519-a27e-12528917deca" d="m287.23,333.48s-1.99,11.41-3.3,27.47c-1.47,17.93,14.5,46.62.02,69.33l-16.59-6.67s1.68-6.71-1.31-16.79-4.85-19.4-4.29-24.06c0,0,.93-19.02-5.6-30.22-1.44-2.47-3.21-5.4-5.1-8.47"/>
      <path class="uuid-3f6ff4e0-7ce4-4f81-a39c-99fe1c4149aa" d="m265.11,369.84c.29-7.72,4.15,7.74,5.9,11.26,2.88,5.78,14.8,10.47,19.91,14.42,5.99,4.63,9.05,12.43,9.82,28.9.77,16.47,7.87,55.79,12.36,65.79,4.5,10,18.14,31.38,8.65,38.71-9.5,7.33-20.84,7-29.16.49-7.05-5.52-15.18-21.29-21.58-43.18-4.41-15.07-7.41-33.69-12.06-48.53-1.44-4.6-3.22-7.65-6.52-11.36-3.03-3.41-15.2-3.44-13.88-8.99.36-1.51,1.52-2.68,2.63-3.77,7.8-7.62,7.74-13.92,14.89-21.69,7.73-8.39,10.57-9.13,9.19-19.42-.14-1.05-.19-1.91-.16-2.62Z"/>
      <path class="uuid-3f6ff4e0-7ce4-4f81-a39c-99fe1c4149aa" d="m309.8,491.2c24.21-11.45,42.91-32.49,50.11-38.77,0,0,5.81-1.63,12.78,1.86,6.97,3.49,5.49,17.06,5.49,17.06,0,0-6.14,1.79-11.64,8.89-3.44,4.44-21.47,27.21-32.16,38.36-4.35,4.54-9.69,9.23-13.51,11.34-6.64,3.67-12.98,4.14-20.36,2.36-4.44-1.07-9.63-3.95-12.35-8.43-6.54-10.75,21.65-32.68,21.65-32.68Z"/>
      <path class="uuid-4d0d96b5-2237-46a3-a269-294b33cdb5a0" d="m314.03,492.6s1.1,3.57,2.07,9.32"/>
    </g>
    <path class="uuid-3522d0f8-8e3f-4dfe-9d5a-3d370dc77b34" d="m267.95,372.49v-1.15c-7.4,1.87-21.67,12.57-21.67,12.57l-10.07,11.61,12.39,4.82c7.35-4.83,17.67-12.21,21.86-20.54-.73-1.89-1.64-4.8-2.51-7.3Z"/>
    <path class="uuid-e75ecb8f-6c14-4519-a27e-12528917deca" d="m282.09,358.04c.81-2.94,1.73-6.02,1.86-9.72,0,0,3.26-11.89,4.89-25.26.41-3.38,6.68-4.07,7.66-1.14.98,2.93,3.58,4.07,4.24,1.47.65-2.61,2.28-7.17,4.64-8.8,2.36-1.63,5.08-7.82,5.08-7.82,2.05-3.62,1.98-8.57,1.98-8.57-.42-8.27-19.71-27.18-41.61-26.34-7.23.28-14.54,2.19-20.2,6.88-10.18,8.44-12.06,23.22-11.88,35.65.11,7.34-.89,30.07-1.75,37.41-3.07,26.13-10.01,29.02-23.08,46.3-13.07,17.29-23.36,41.66-21.17,62.33,2.19,20.67,17.53,29.21,24.54,29.65,7.01.44,12.13-4.34,12.89-11.85.76-7.51-9.82-27.36-6.97-42.92,2.85-15.55,14.9-32.11,33.3-46.29,18.4-14.18,22.21-18.73,25.6-31Z"/>
    <path class="uuid-d3c37d42-0588-40d8-b6c8-69e854eacf98" d="m296.85,323s-.31-4.53-3.66-5.54c-3.35-1.01-6.46,4.19-5.77,11.05.69,6.85,6.57,9.25,6.57,9.25"/>
    <path class="uuid-c3467af5-6325-43d8-8b44-b506b6432b9b" d="m307.72,311.86c1.52-2.32,2.74-5.1,2.74-5.1,2.05-3.62,1.98-8.57,1.98-8.57-.42-8.27-19.71-27.18-41.61-26.34-.78.03-1.57.08-2.35.15,6.05-.1,34.5,7.1,39.24,39.85Z"/>
    <path class="uuid-49de6ed4-7339-4d9e-913d-74c35b43669b" d="m310.87,319.72c.69.01,1.71-.04,2.44-.41"/>
    <path class="uuid-e75ecb8f-6c14-4519-a27e-12528917deca" d="m314.02,312.01c-.73-.62-1.85-1.06-3.15.31,0,0,.5-1.84,1.87-2.35s1.7.92,1.29,2.04Z"/>
  </g>
</svg>
